<svg width="50" height="62" viewBox="0 0 50 62" fill="none" xmlns="http://www.w3.org/2000/svg">
<path d="M0 36.9999L14.4 35.3999L39.2 55.3999L24.7324 56.9999L0 36.9999Z" fill="url(#paint0_linear_3116_11337)"/>
<path d="M7.20001 17.8L21.6 16.2L46.4 36.2L31.9324 37.8L7.20001 17.8Z" fill="url(#paint1_linear_3116_11337)"/>
<path d="M17.6 24.2L42.4 44.2L39.2 55.4L14.4 35.4L17.6 24.2Z" fill="url(#paint2_linear_3116_11337)"/>
<path d="M24.8 5L49.6 25L46.4 36.2L21.6 16.2L24.8 5Z" fill="url(#paint3_linear_3116_11337)"/>
<path d="M3.2 25.8L17.6 24.2L14.4 35.4L0 37L3.2 25.8Z" fill="url(#paint4_linear_3116_11337)"/>
<path d="M10.4 6.6L24.8 5L21.6 16.2L7.20001 17.8L10.4 6.6Z" fill="url(#paint5_linear_3116_11337)"/>
<defs>
<linearGradient id="paint0_linear_3116_11337" x1="21.6814" y1="61.5473" x2="22.147" y2="39.385" gradientUnits="userSpaceOnUse">
<stop stop-color="#93C6E9"/>
<stop offset="0.576823" stop-color="#40AAF3"/>
<stop offset="1" stop-color="#29A2F6"/>
</linearGradient>
<linearGradient id="paint1_linear_3116_11337" x1="28.8814" y1="42.3474" x2="29.347" y2="20.185" gradientUnits="userSpaceOnUse">
<stop stop-color="#93C6E9"/>
<stop offset="0.576823" stop-color="#40AAF3"/>
<stop offset="1" stop-color="#29A2F6"/>
</linearGradient>
<linearGradient id="paint2_linear_3116_11337" x1="29.8867" y1="61.9684" x2="31.2448" y2="29.9997" gradientUnits="userSpaceOnUse">
<stop stop-color="#93C6E9"/>
<stop offset="0.576823" stop-color="#40AAF3"/>
<stop offset="1" stop-color="#29A2F6"/>
</linearGradient>
<linearGradient id="paint3_linear_3116_11337" x1="37.0867" y1="42.7684" x2="38.4448" y2="10.7998" gradientUnits="userSpaceOnUse">
<stop stop-color="#93C6E9"/>
<stop offset="0.576823" stop-color="#40AAF3"/>
<stop offset="1" stop-color="#29A2F6"/>
</linearGradient>
<linearGradient id="paint4_linear_3116_11337" x1="9.73451" y1="39.6947" x2="10.0985" y2="26.5658" gradientUnits="userSpaceOnUse">
<stop stop-color="#93C6E9"/>
<stop offset="0.576823" stop-color="#40AAF3"/>
<stop offset="1" stop-color="#29A2F6"/>
</linearGradient>
<linearGradient id="paint5_linear_3116_11337" x1="16.9345" y1="20.4947" x2="17.2985" y2="7.36583" gradientUnits="userSpaceOnUse">
<stop stop-color="#93C6E9"/>
<stop offset="0.576823" stop-color="#40AAF3"/>
<stop offset="1" stop-color="#29A2F6"/>
</linearGradient>
</defs>
</svg>
